<?xml version="1.0" encoding="utf-8"?>
<!-- Generator: Adobe Illustrator 24.2.1, SVG Export Plug-In . SVG Version: 6.00 Build 0)  -->
<svg version="1.1" id="Capa_1" xmlns="http://www.w3.org/2000/svg" xmlns:xlink="http://www.w3.org/1999/xlink" x="0px" y="0px"
	 viewBox="0 0 157 24" style="enable-background:new 0 0 157 24;" xml:space="preserve">
<style type="text/css">
	.st0{fill:none;stroke:#000000;stroke-width:0.8924;stroke-linecap:round;stroke-linejoin:round;stroke-miterlimit:10;}
	.st1{fill:none;stroke:#000000;stroke-width:0.6693;stroke-linecap:round;stroke-linejoin:round;stroke-miterlimit:10;}
	.st2{fill:none;stroke:#F0047F;stroke-width:0.2231;stroke-miterlimit:10;}
</style>
<g>
	<path d="M59.68,23.28H48.32c0.13-1.8,0.17-4.07,0.17-8.5v-5.9c0-4.73-0.07-6.97-0.13-8.17h10.77l0.1,1.47
		c-1.33-0.03-2.8-0.1-5.77-0.1h-3.5v9.07h3.73c1.4,0,3,0,4.87-0.07l-0.07,1.53c-1.57,0-3.07-0.03-4.73-0.03h-3.8v9.33h4.07
		c2.83,0,4.4-0.1,5.77-0.13L59.68,23.28z"/>
	<path d="M80.27,4.65v9.7c0,6.37-3.03,9.3-8.3,9.3c-4.83,0-7.97-2.77-7.97-8.9v-9.5c0-1.8-0.03-3.4-0.07-4.53h1.77
		c-0.03,1.07-0.07,2.47-0.07,4.23v9.53c0,5.27,2.43,7.77,6.6,7.77c3.63,0,6.4-1.97,6.4-7.43v-10c0-1.33-0.03-3.07-0.07-4.1h1.73
		C80.27,1.95,80.27,3.15,80.27,4.65z"/>
	<path d="M102.39,23.58L87.59,4.52c-0.23-0.3-0.57-1.03-0.67-1.33h-0.07c0.07,0.33,0.17,1.17,0.17,1.57v18.53h-1.5
		c0-1.83,0.03-5.07,0.03-8.67V9.08c0-4.03,0.03-6.97-0.03-8.63h0.8l14.5,18.8c0.27,0.33,0.67,1.1,0.87,1.43h0.07
		c-0.1-0.4-0.17-1.33-0.17-1.83V0.72h1.5c-0.03,1.67-0.03,4.13-0.03,8.23v5.47c0,4.33,0,7.63,0.03,9.17H102.39z"/>
	<path d="M117.3,23.65c-6.1,0-10.37-4.7-10.37-11.33c0-7.4,4.37-11.97,10.87-11.97c6.1,0,10.23,4.57,10.23,11.33
		C128.03,19.15,123.8,23.65,117.3,23.65z M117.53,1.75c-5.3,0-9.03,3.8-9.03,10.2c0,6.07,3.57,10.3,8.93,10.3
		c5.13,0,9.13-3.6,9.13-10.13S122.87,1.75,117.53,1.75z"/>
	<path d="M132.59,23.28c0.03-1.57,0.1-3.37,0.1-8.7V8.52c0-4.6-0.03-6.27-0.13-7.8h1.73c-0.03,1.57-0.07,3.2-0.07,7.7v6.13
		c0,5.37,0,7.2,0.07,8.73H132.59z"/>
	<path d="M154.92,23.28c-0.77-2.07-1.6-4.2-3.07-8h-9.23c-1.27,3.23-2.4,6.17-3.1,8h-1.73c0.93-2.17,2.07-4.8,4.2-10.3
		c2.87-7.37,3.9-10.07,4.67-12.4h1.1c0.67,1.93,2.33,5.93,4.87,12.43c1.63,4.2,3.33,8.43,4.1,10.27H154.92z M147.55,4.18
		c-0.13-0.33-0.3-1.03-0.33-1.4h-0.07c-0.03,0.4-0.17,1-0.33,1.4l-3.67,9.67h8.1L147.55,4.18z"/>
</g>
<g>
	<path class="st0" d="M5.34,12.17c0,0,6.06,6.36,14.39,5.65c8.33-0.71,11.3-3.53,15.25-6.73"/>
	<line class="st1" x1="12.89" y1="16.89" x2="11.7" y2="21.95"/>
	<path class="st1" d="M18.8,17.87c0,0,0.15,4.49,0.56,4.52"/>
	<path class="st1" d="M25.81,16.7c0,0,0.58,4.02,0.76,4.02"/>
	<path class="st1" d="M30.9,14.24c0,0,1.61,4.36,2.36,5.58"/>
	<path class="st1" d="M7.49,13.99c0,0-1.34,4.12-2.15,5.42"/>
	<circle cx="0.76" cy="8.64" r="0.48"/>
	<circle cx="3.38" cy="5.94" r="0.48"/>
	<path d="M8.59,4.15c0,0.27-0.22,0.48-0.48,0.48c-0.27,0-0.48-0.22-0.48-0.48S7.84,3.67,8.1,3.67C8.37,3.67,8.59,3.89,8.59,4.15z"/>
	<circle cx="12.46" cy="2.91" r="0.48"/>
	<circle cx="16.62" cy="2.2" r="0.48"/>
	<circle cx="21.1" cy="2.09" r="0.48"/>
	<circle cx="26.12" cy="2.57" r="0.48"/>
	<circle cx="30.49" cy="3.8" r="0.48"/>
	<path d="M34.49,5.21c0,0.27-0.22,0.48-0.48,0.48c-0.27,0-0.48-0.22-0.48-0.48c0-0.27,0.22-0.48,0.48-0.48
		C34.27,4.73,34.49,4.95,34.49,5.21z"/>
	<circle cx="37.04" cy="6.92" r="0.48"/>
	<circle cx="39.27" cy="9.79" r="0.48"/>
	<path class="st2" d="M23.54,7.41"/>
	<path class="st1" d="M23.13,7.24c0,0-2.34-1.95-4.5-0.45c-0.65,0.45-2.14,1.6-2.14,3.44c0,1.84,1.79,3.76,3.76,3.76
		s3.51-1.52,3.51-1.52s-1.84,0.06-2.27-0.06c-0.43-0.11-2.19-0.52-2.19-2.51s1.74-2.26,2.55-2.4C22.23,7.43,23.13,7.24,23.13,7.24z"
		/>
</g>
</svg>
