<?xml version="1.0" encoding="utf-8"?>
<!-- Generator: Adobe Illustrator 24.2.1, SVG Export Plug-In . SVG Version: 6.00 Build 0)  -->
<svg version="1.1" id="Capa_1" xmlns="http://www.w3.org/2000/svg" xmlns:xlink="http://www.w3.org/1999/xlink" x="0px" y="0px"
	 viewBox="0 0 40 40" style="enable-background:new 0 0 40 40;" xml:space="preserve">
<path d="M39.2,21.5C38.6,21,38,21,37.6,21.2L36.5,22c-4.5,3.6-8,6.4-17.3,7.3c-9.5,0.8-16.7-6.5-16.8-6.6c-0.3-0.3-0.6-0.4-0.9-0.3
	c-0.2,0-0.4,0.2-0.6,0.4c-0.2,0.2-0.3,0.6-0.3,0.9c0,0.2,0.2,0.4,0.4,0.6c0.3,0.3,1.1,1,2.2,2c-0.7,1.9-1.4,3.9-2.3,5.8
	c-0.1,0.3-0.1,0.6,0,0.8C1,33,1.3,33.1,1.5,33.1h0.1c0.3,0,0.6-0.2,0.7-0.4l0.1-0.1c0.9-1.7,1.5-3.5,2.3-5.5
	c1.1,0.8,2.9,1.9,5.2,2.7l-1.3,5.3l0,0.1c0,0.5,0.3,1,0.7,1h0.1c0.5,0,0.8-0.3,0.9-0.8l1.2-5.1c2.1,0.6,4,0.9,5.8,1
	c0.2,4.6,0.7,5.4,1.6,5.4c0.5,0,0.9-0.3,0.9-0.9c0-0.2-0.1-0.3-0.1-0.4v-0.1l-0.1-0.1c-0.2-0.4-0.3-2.5-0.4-4l0.2,0
	c2.8-0.2,5-0.7,6.7-1.1c0.2,1.3,0.4,2.6,0.8,3.8c0,0.5,0.5,0.8,0.9,0.8H28c0.3,0,0.5-0.1,0.7-0.4c0.1-0.2,0.2-0.5,0-0.8
	c-0.3-1.3-0.6-2.6-0.8-3.9c1.9-0.7,3.5-1.4,4.8-2.3c0.7,1.9,1.6,3.8,2.5,5.7l0.1,0.1c0.2,0.2,0.4,0.4,0.7,0.4h0.2l0.1-0.1
	c0.3-0.2,0.5-0.5,0.5-0.9l-0.1-0.2c-0.9-1.9-1.8-3.9-2.5-5.9c0.7-0.5,1.4-1,2.1-1.6c0.5-0.4,1-0.8,1.5-1.2l1-0.8
	c0.4-0.4,0.5-0.8,0.2-1.3L39.2,21.5z"/>
<path d="M2,11.4c0.9,0,1.5-0.6,1.5-1.5S2.9,8.4,2,8.4S0.5,9.1,0.5,9.9S1.1,11.4,2,11.4z M2,10.4C2,10.4,2,10.4,2,10.4
	C2,10.4,2,10.4,2,10.4C2,10.4,2,10.4,2,10.4C2,10.4,2,10.4,2,10.4z M2.5,9.9C2.5,9.9,2.5,9.9,2.5,9.9C2.5,9.9,2.5,9.9,2.5,9.9
	C2.5,9.9,2.5,9.9,2.5,9.9C2.5,9.9,2.5,9.9,2.5,9.9z"/>
<path d="M8.8,7.5c0.9,0,1.5-0.6,1.5-1.5S9.7,4.5,8.8,4.5S7.3,5.2,7.3,6S8,7.5,8.8,7.5z M8.8,6.5C8.8,6.5,8.8,6.5,8.8,6.5
	C8.8,6.5,8.8,6.5,8.8,6.5C8.8,6.5,8.8,6.5,8.8,6.5C8.8,6.5,8.8,6.5,8.8,6.5z M8.3,6C8.3,6,8.3,6,8.3,6C8.3,6,8.3,6,8.3,6
	C8.3,6,8.3,6,8.3,6C8.3,6,8.3,6,8.3,6z"/>
<path d="M16.2,5.8c0.9,0,1.5-0.6,1.5-1.5s-0.6-1.5-1.5-1.5s-1.5,0.6-1.5,1.5S15.4,5.8,16.2,5.8z M16.2,3.8
	C16.2,3.8,16.2,3.8,16.2,3.8C16.2,3.8,16.2,3.8,16.2,3.8C16.2,3.8,16.2,3.8,16.2,3.8C16.2,3.8,16.2,3.8,16.2,3.8z M15.7,4.3
	C15.7,4.3,15.7,4.3,15.7,4.3C15.7,4.3,15.7,4.3,15.7,4.3C15.7,4.3,15.7,4.3,15.7,4.3C15.7,4.3,15.7,4.3,15.7,4.3z"/>
<path d="M24,5.7c0.9,0,1.5-0.6,1.5-1.5S24.8,2.7,24,2.7s-1.5,0.6-1.5,1.5S23.1,5.7,24,5.7z M24,3.7C24,3.7,24,3.7,24,3.7
	C24,3.7,24,3.7,24,3.7C24,3.7,24,3.7,24,3.7C24,3.7,24,3.7,24,3.7z M23.5,4.2C23.5,4.2,23.5,4.2,23.5,4.2
	C23.5,4.2,23.5,4.2,23.5,4.2C23.5,4.2,23.5,4.2,23.5,4.2C23.5,4.2,23.5,4.2,23.5,4.2z"/>
<circle cx="31.5" cy="6.1" r="1.5"/>
<polygon points="31.5,5.6 31.5,5.6 31.5,5.6 31.5,5.6 "/>
<polygon points="32,6.1 32,6.1 32,6.1 32,6.1 "/>
<path d="M39.7,10.2c-0.2-0.7-0.8-1.2-1.4-1.2c-0.9,0-1.5,0.6-1.5,1.5s0.6,1.5,1.5,1.5s1.5-0.6,1.5-1.5v-0.2L39.7,10.2z"/>
<path d="M37.8,10.9L37.8,10.9c0.1,0,0.1,0.1,0.2,0.1C37.9,11,37.8,10.9,37.8,10.9z"/>
<polygon points="38.3,11.1 38.3,11.1 38.3,11.1 38.3,11.1 "/>
<path d="M38.8,10.6C38.8,10.6,38.8,10.6,38.8,10.6L38.8,10.6c-0.1-0.3-0.3-0.5-0.5-0.5C38.5,10.1,38.8,10.3,38.8,10.6
	C38.8,10.6,38.8,10.6,38.8,10.6z"/>
<path d="M20.2,25.2c2.7-0.2,5.2-1.3,7.1-3.1c0.2-0.2,0.2-0.4,0.2-0.8c-0.2-0.2-0.4-0.4-0.6-0.4c-1.3,0-2.9,0-4.2-0.2
	c-2.1-0.4-3.7-2.1-3.7-4.2c0-2.9,2.1-3.7,4.4-4L26,12c0.2,0,0.4-0.2,0.6-0.4c0.2-0.2,0-0.6-0.2-0.6c0,0-5-4-9.4-1
	c-2.5,1.5-4.2,4.2-4.4,7.1C12.5,21.6,15.8,25.1,20.2,25.2z M17.3,11.4c1-0.8,2.1-1,3.1-1c1.3,0,2.7,0.6,3.7,1l-1,0.2
	c-1.5,0.2-5.4,1-5.4,5.2c0,2.7,2.1,5,4.8,5.4c0.8,0,1.7,0.2,2.5,0.2c-1.5,1-3.1,1.5-4.8,1.5c-3.7-0.2-6.4-3.1-6.5-6.5
	C13.6,14.9,15,12.7,17.3,11.4z"/>
</svg>
